<svg xmlns="http://www.w3.org/2000/svg" width="512" height="512" viewBox="0 0 512 512">
  <defs>
    <clipPath id="top-left">
      <polygon points="0,0 512,0 0,512"/>
    </clipPath>
    <clipPath id="bottom-right">
      <polygon points="512,0 512,512 0,512"/>
    </clipPath>
  </defs>
  <mask id="a"><circle cx="256" cy="256" r="256" fill="#fff"/></mask>
  <g mask="url(#a)">
    <!-- US Top-Left -->
    <g clip-path="url(#top-left)">
      <path fill="#eee" d="M256 0h256v64l-32 32 32 32v64l-32 32 32 32v64l-32 32 32 32v64l-256 32L0 448v-64l32-32-32-32v-64z"/>
      <path fill="#d80027" d="M224 64h288v64H224Zm0 128h288v64H256ZM0 320h512v64H0Zm0 128h512v64H0Z"/>
      <path fill="#0052b4" d="M0 0h256v256H0Z"/>
      <path fill="#eee" d="m187 243 57-41h-70l57 41-22-67zm-81 0 57-41H93l57 41-22-67zm-81 0 57-41H12l57 41-22-67zm162-81 57-41h-70l57 41-22-67zm-81 0 57-41H93l57 41-22-67zm-81 0 57-41H12l57 41-22-67Zm162-82 57-41h-70l57 41-22-67Zm-81 0 57-41H93l57 41-22-67zm-81 0 57-41H12l57 41-22-67Z"/>
    </g>
    <!-- GB Bottom-Right -->
    <g clip-path="url(#bottom-right)">
      <path fill="#eee" d="m0 0 8 22-8 23v23l32 54-32 54v32l32 48-32 48v32l32 54-32 54v68l22-8 23 8h23l54-32 54 32h32l48-32 48 32h32l54-32 54 32h68l-8-22 8-23v-23l-32-54 32-54v-32l-32-48 32-48v-32l-32-54 32-54V0l-22 8-23-8h-23l-54 32-54-32h-32l-48 32-48-32h-32l-54 32L68 0z"/>
      <path fill="#0052b4" d="M336 0v108L444 0Zm176 68L404 176h108zM0 176h108L0 68ZM68 0l108 108V0Zm108 512V404L68 512ZM0 444l108-108H0Zm512-108H404l108 108Zm-68 176L336 404v108z"/>
      <path fill="#d80027" d="M0 0v45l131 131h45zm208 0v208H0v96h208v208h96V304h208v-96H304V0zm259 0L336 131v45L512 0zM176 336 0 512h45l131-131zm160 0 176 176v-45L381 336z"/>
    </g>
    <line x1="0" y1="512" x2="512" y2="0" stroke="#fff" stroke-width="24"/>
  </g>
</svg>
